<?xml version="1.0" encoding="iso-8859-1"?>
<!-- Generator: Adobe Illustrator 23.0.1, SVG Export Plug-In . SVG Version: 6.00 Build 0)  -->
<svg version="1.1" id="Layer_1" xmlns="http://www.w3.org/2000/svg" xmlns:xlink="http://www.w3.org/1999/xlink" x="0px" y="0px"
	 viewBox="0 0 512 512" style="enable-background:new 0 0 512 512;" xml:space="preserve">
<g>
	<rect x="31" y="267.501" style="fill:#84B740;" width="190.354" height="63.414"/>
	<rect x="31" y="180.972" style="fill:#259BD6;" width="190.354" height="63.47"/>
	<path style="fill:#27292D;" d="M411.708,318.029l-0.848,0.17c-2.939,0.565-4.013,0.791-6.161,0.791
		c-4.974,0-10.852-2.543-10.852-14.525c0-6.161,1.017-14.356,10.286-14.356h0.057c1.582,0.113,3.391,0.283,6.782,1.3l0.735,0.226
		L411.708,318.029L411.708,318.029z M413.234,258.289l-1.526,0.283v22.155l-1.356-0.396l-0.396-0.113
		c-1.526-0.452-5.03-1.469-8.421-1.469c-18.538,0-22.438,14.017-22.438,25.772c0,16.108,9.043,25.377,24.812,25.377
		c6.669,0,11.586-0.678,16.56-2.317c4.578-1.469,6.217-3.561,6.217-8.026v-63.583C422.277,256.763,417.699,257.554,413.234,258.289"
		/>
	<path style="fill:#27292D;" d="M466.814,318.425l-0.791,0.226l-2.826,0.735c-2.656,0.678-5.03,1.074-6.839,1.074
		c-4.352,0-6.952-2.148-6.952-5.821c0-2.374,1.074-6.387,8.195-6.387h9.212V318.425z M460.314,278.466
		c-5.708,0-11.586,1.017-18.877,3.278l-4.748,1.413l1.583,10.738l4.635-1.526c4.861-1.583,10.908-2.6,15.43-2.6
		c2.035,0,8.252,0,8.252,6.726v2.939h-8.647c-15.769,0-23.06,5.03-23.06,15.825c0,9.212,6.726,14.751,18.029,14.751
		c3.504,0,8.365-0.678,12.547-1.696l0.226-0.057l0.226,0.057l1.413,0.226c4.408,0.791,8.986,1.583,13.451,2.43v-35.268
		C480.774,284.287,473.879,278.466,460.314,278.466"/>
	<path style="fill:#27292D;" d="M356.998,318.425l-0.791,0.226l-2.826,0.735c-2.656,0.678-4.974,1.074-6.839,1.074
		c-4.352,0-6.952-2.148-6.952-5.821c0-2.374,1.074-6.387,8.139-6.387h9.212v10.173H356.998z M350.555,278.466
		c-5.765,0-11.586,1.017-18.877,3.278l-4.748,1.413l1.582,10.738l4.635-1.526c4.861-1.583,10.908-2.6,15.43-2.6
		c2.035,0,8.252,0,8.252,6.726v2.939h-8.647c-15.769,0-23.116,5.03-23.116,15.825c0,9.212,6.726,14.751,18.086,14.751
		c3.504,0,8.365-0.678,12.547-1.696l0.226-0.057l0.226,0.057l1.356,0.226c4.465,0.791,8.986,1.583,13.451,2.487v-35.268
		C371.015,284.231,364.12,278.466,350.555,278.466"/>
	<path style="fill:#27292D;" d="M297.485,278.579c-7.178,0-13.112,2.374-15.316,3.391l-0.565,0.283l-0.509-0.396
		c-3.052-2.204-7.517-3.335-13.734-3.335c-5.482,0-10.625,0.791-16.221,2.43c-4.804,1.469-6.669,3.787-6.669,8.139v40.298h15.034
		v-37.246l0.735-0.226c3.052-1.017,4.861-1.187,6.613-1.187c4.352,0,6.556,2.317,6.556,6.839v31.876h14.808v-32.498
		c0-1.922-0.396-3.052-0.452-3.278l-0.509-0.961l1.017-0.452c2.261-1.017,4.748-1.526,7.347-1.526c2.995,0,6.556,1.187,6.556,6.839
		v31.876h14.751V296.1C316.927,284.287,310.597,278.579,297.485,278.579"/>
	<path style="fill:#27292D;" d="M455.736,222.343c-2.204,0-5.878-0.226-8.76-0.791l-0.848-0.17v-21.76
		c0-1.809-0.339-2.939-0.396-3.109l-0.452-0.904l0.961-0.396c0.226-0.113,0.452-0.17,0.735-0.283l0.17-0.113
		c0.339-0.113,0.678-0.226,1.017-0.339c0.17-0.057,0.283-0.113,0.396-0.113c3.335-0.904,6.387-0.791,7.743-0.904h0.057
		c9.212,0,10.286,8.195,10.286,14.356C466.588,219.8,460.653,222.343,455.736,222.343 M455.68,180.972c-0.113,0-0.283,0-0.396,0
		c-8.647,0-17.521,2.374-20.686,7.008c-1.696,2.261-2.656,5.087-2.713,8.421l0,0v22.438c0,1.922-0.396,2.656-0.452,2.826
		l-0.509,0.961h-27.298v-15.599h-0.057c-0.339-16.447-10.06-25.49-24.133-25.49h-1.639h-12.095
		c-0.565,4.013-1.017,6.839-1.582,10.852h13.677c7.178,0,10.965,6.104,10.965,15.486v15.712l-0.961-0.509
		c-0.17-0.057-1.356-0.452-3.222-0.452h-23.625c-0.452,2.995-1.017,6.895-1.639,10.795h72.626c2.487-0.509,5.369-0.961,7.856-1.356
		c3.674,1.809,10.512,2.769,15.203,2.769c15.769,0,25.999-10.569,25.999-26.846C480.943,191.88,471.053,181.311,455.68,180.972"/>
	<path style="fill:#27292D;" d="M328.344,240.034h0.678c15.769,0,23.116-5.2,23.116-18.029c0-9.213-6.726-16.56-18.029-16.56
		h-14.525c-4.352,0-6.952-2.487-6.952-6.669c0-2.826,1.074-6.33,8.195-6.33h31.763c0.678-4.126,1.017-6.726,1.639-10.852h-33.007
		c-15.373,0-23.116,6.443-23.116,17.182c0,10.625,6.726,16.164,18.029,16.164h14.525c4.352,0,6.952,3.448,6.952,7.065
		c0,2.374-1.074,7.291-8.139,7.291h-2.43l-46.515-0.113l0,0h-8.478c-7.178,0-12.208-4.069-12.208-13.508v-6.5
		c0-9.834,3.9-15.938,12.208-15.938h13.79c0.622-4.182,1.017-6.839,1.583-10.795h-17.182h-1.639
		c-14.073,0-23.794,9.439-24.133,25.885l0,0v0.622v6.726c0.339,16.447,10.06,24.303,24.133,24.303h1.639h12.095l25.207,0.057l0,0
		h15.034L328.344,240.034L328.344,240.034z"/>
</g>
</svg>
